<svg id="visual" viewBox="0 0 900 600" width="900" height="600" xmlns="http://www.w3.org/2000/svg" xmlns:xlink="http://www.w3.org/1999/xlink" version="1.1"><path d="M0 61L82 61L82 79L164 79L164 43L245 43L245 103L327 103L327 61L409 61L409 85L491 85L491 43L573 43L573 55L655 55L655 55L736 55L736 97L818 97L818 67L900 67L900 55L900 0L900 0L818 0L818 0L736 0L736 0L655 0L655 0L573 0L573 0L491 0L491 0L409 0L409 0L327 0L327 0L245 0L245 0L164 0L164 0L82 0L82 0L0 0Z" fill="#6d69fa"></path><path d="M0 289L82 289L82 271L164 271L164 187L245 187L245 205L327 205L327 307L409 307L409 271L491 271L491 157L573 157L573 223L655 223L655 217L736 217L736 199L818 199L818 283L900 283L900 271L900 53L900 65L818 65L818 95L736 95L736 53L655 53L655 53L573 53L573 41L491 41L491 83L409 83L409 59L327 59L327 101L245 101L245 41L164 41L164 77L82 77L82 59L0 59Z" fill="#5d57e7"></path><path d="M0 445L82 445L82 391L164 391L164 427L245 427L245 397L327 397L327 445L409 445L409 409L491 409L491 343L573 343L573 421L655 421L655 493L736 493L736 427L818 427L818 481L900 481L900 391L900 269L900 281L818 281L818 197L736 197L736 215L655 215L655 221L573 221L573 155L491 155L491 269L409 269L409 305L327 305L327 203L245 203L245 185L164 185L164 269L82 269L82 287L0 287Z" fill="#4c46d5"></path><path d="M0 517L82 517L82 547L164 547L164 559L245 559L245 499L327 499L327 553L409 553L409 547L491 547L491 481L573 481L573 547L655 547L655 553L736 553L736 529L818 529L818 547L900 547L900 505L900 389L900 479L818 479L818 425L736 425L736 491L655 491L655 419L573 419L573 341L491 341L491 407L409 407L409 443L327 443L327 395L245 395L245 425L164 425L164 389L82 389L82 443L0 443Z" fill="#3b35c2"></path><path d="M0 601L82 601L82 601L164 601L164 601L245 601L245 601L327 601L327 601L409 601L409 601L491 601L491 601L573 601L573 601L655 601L655 601L736 601L736 601L818 601L818 601L900 601L900 601L900 503L900 545L818 545L818 527L736 527L736 551L655 551L655 545L573 545L573 479L491 479L491 545L409 545L409 551L327 551L327 497L245 497L245 557L164 557L164 545L82 545L82 515L0 515Z" fill="#2723b0"></path></svg>